<mxfile host="Electron" modified="2024-05-10T10:58:08.344Z" agent="Mozilla/5.0 (Windows NT 10.0; Win64; x64) AppleWebKit/537.36 (KHTML, like Gecko) draw.io/24.2.5 Chrome/120.0.6099.109 Electron/28.1.0 Safari/537.36" etag="EvESvM3Up3AId58x0kHE" version="24.2.5" type="device">
  <diagram name="PÃ¡gina-1" id="A4fja1DhVL6yfe5Ew8Cs">
    <mxGraphModel dx="1426" dy="836" grid="1" gridSize="10" guides="1" tooltips="1" connect="1" arrows="1" fold="1" page="1" pageScale="1" pageWidth="827" pageHeight="1169" math="0" shadow="0">
      <root>
        <mxCell id="0" />
        <mxCell id="1" parent="0" />
        <mxCell id="8mp85EiAqP2YCafliV72-4" value="" style="rounded=0;whiteSpace=wrap;html=1;fillColor=none;" vertex="1" parent="1">
          <mxGeometry x="130" y="340" width="930" height="550" as="geometry" />
        </mxCell>
        <mxCell id="8mp85EiAqP2YCafliV72-2" value="Usuario" style="shape=umlActor;verticalLabelPosition=bottom;verticalAlign=top;html=1;" vertex="1" parent="1">
          <mxGeometry x="40" y="340" width="30" height="60" as="geometry" />
        </mxCell>
        <mxCell id="8mp85EiAqP2YCafliV72-3" value="Sistema de cursos de entrenamiento" style="text;html=1;align=center;verticalAlign=middle;resizable=0;points=[];autosize=1;strokeColor=none;fillColor=none;" vertex="1" parent="1">
          <mxGeometry x="840" y="310" width="220" height="30" as="geometry" />
        </mxCell>
        <mxCell id="8mp85EiAqP2YCafliV72-5" value="Programa" style="shape=umlActor;verticalLabelPosition=bottom;verticalAlign=top;html=1;" vertex="1" parent="1">
          <mxGeometry x="40" y="630" width="30" height="60" as="geometry" />
        </mxCell>
        <mxCell id="8mp85EiAqP2YCafliV72-6" value="Solcicitar cuestionario" style="ellipse;whiteSpace=wrap;html=1;" vertex="1" parent="1">
          <mxGeometry x="150" y="360" width="140" height="70" as="geometry" />
        </mxCell>
        <mxCell id="8mp85EiAqP2YCafliV72-7" value="Recuperar preguntas aleatorias" style="ellipse;whiteSpace=wrap;html=1;" vertex="1" parent="1">
          <mxGeometry x="160" y="710" width="140" height="70" as="geometry" />
        </mxCell>
        <mxCell id="8mp85EiAqP2YCafliV72-8" value="Generar cuestionario" style="ellipse;whiteSpace=wrap;html=1;" vertex="1" parent="1">
          <mxGeometry x="414" y="710" width="140" height="70" as="geometry" />
        </mxCell>
        <mxCell id="8mp85EiAqP2YCafliV72-9" value="Recoger respuestas usuario" style="ellipse;whiteSpace=wrap;html=1;" vertex="1" parent="1">
          <mxGeometry x="687" y="710" width="140" height="70" as="geometry" />
        </mxCell>
        <mxCell id="8mp85EiAqP2YCafliV72-10" value="Emitir respuestas" style="ellipse;whiteSpace=wrap;html=1;" vertex="1" parent="1">
          <mxGeometry x="414" y="360" width="140" height="70" as="geometry" />
        </mxCell>
        <mxCell id="8mp85EiAqP2YCafliV72-11" value="Solicitar resultado" style="ellipse;whiteSpace=wrap;html=1;" vertex="1" parent="1">
          <mxGeometry x="687" y="360" width="140" height="70" as="geometry" />
        </mxCell>
        <mxCell id="8mp85EiAqP2YCafliV72-12" value="Matricularse en examen oficial" style="ellipse;whiteSpace=wrap;html=1;" vertex="1" parent="1">
          <mxGeometry x="150" y="450" width="140" height="70" as="geometry" />
        </mxCell>
        <mxCell id="8mp85EiAqP2YCafliV72-13" value="Realizar pago" style="ellipse;whiteSpace=wrap;html=1;" vertex="1" parent="1">
          <mxGeometry x="414" y="450" width="140" height="70" as="geometry" />
        </mxCell>
        <mxCell id="8mp85EiAqP2YCafliV72-14" value="Tarjeta" style="ellipse;whiteSpace=wrap;html=1;" vertex="1" parent="1">
          <mxGeometry x="687" y="450" width="140" height="70" as="geometry" />
        </mxCell>
        <mxCell id="8mp85EiAqP2YCafliV72-15" value="Transferencia" style="ellipse;whiteSpace=wrap;html=1;" vertex="1" parent="1">
          <mxGeometry x="687" y="570" width="140" height="70" as="geometry" />
        </mxCell>
        <mxCell id="8mp85EiAqP2YCafliV72-16" value="Elegir fecha y hora" style="ellipse;whiteSpace=wrap;html=1;" vertex="1" parent="1">
          <mxGeometry x="920" y="450" width="140" height="70" as="geometry" />
        </mxCell>
        <mxCell id="8mp85EiAqP2YCafliV72-18" value="" style="endArrow=none;html=1;rounded=0;exitX=1;exitY=0.3333333333333333;exitDx=0;exitDy=0;exitPerimeter=0;entryX=0;entryY=0.5;entryDx=0;entryDy=0;" edge="1" parent="1" source="8mp85EiAqP2YCafliV72-2" target="8mp85EiAqP2YCafliV72-6">
          <mxGeometry width="50" height="50" relative="1" as="geometry">
            <mxPoint x="280" y="500" as="sourcePoint" />
            <mxPoint x="330" y="450" as="targetPoint" />
          </mxGeometry>
        </mxCell>
        <mxCell id="8mp85EiAqP2YCafliV72-19" value="" style="endArrow=none;html=1;rounded=0;exitX=1;exitY=0.3333333333333333;exitDx=0;exitDy=0;exitPerimeter=0;entryX=0;entryY=0.5;entryDx=0;entryDy=0;" edge="1" parent="1" source="8mp85EiAqP2YCafliV72-2" target="8mp85EiAqP2YCafliV72-12">
          <mxGeometry width="50" height="50" relative="1" as="geometry">
            <mxPoint x="80" y="370" as="sourcePoint" />
            <mxPoint x="160" y="405" as="targetPoint" />
          </mxGeometry>
        </mxCell>
        <mxCell id="8mp85EiAqP2YCafliV72-20" value="" style="endArrow=none;html=1;rounded=0;exitX=1;exitY=0.3333333333333333;exitDx=0;exitDy=0;exitPerimeter=0;entryX=0;entryY=0.5;entryDx=0;entryDy=0;" edge="1" parent="1" source="8mp85EiAqP2YCafliV72-5" target="8mp85EiAqP2YCafliV72-7">
          <mxGeometry width="50" height="50" relative="1" as="geometry">
            <mxPoint x="80" y="370" as="sourcePoint" />
            <mxPoint x="160" y="495" as="targetPoint" />
          </mxGeometry>
        </mxCell>
        <mxCell id="8mp85EiAqP2YCafliV72-21" value="&amp;lt;&amp;lt;extend&amp;gt;&amp;gt;" style="html=1;verticalAlign=bottom;labelBackgroundColor=none;endArrow=open;endFill=0;dashed=1;rounded=0;entryX=1;entryY=0.5;entryDx=0;entryDy=0;exitX=0;exitY=0.5;exitDx=0;exitDy=0;" edge="1" parent="1" source="8mp85EiAqP2YCafliV72-11" target="8mp85EiAqP2YCafliV72-10">
          <mxGeometry width="160" relative="1" as="geometry">
            <mxPoint x="640" y="430" as="sourcePoint" />
            <mxPoint x="790" y="430" as="targetPoint" />
          </mxGeometry>
        </mxCell>
        <mxCell id="8mp85EiAqP2YCafliV72-22" value="&amp;lt;&amp;lt;extend&amp;gt;&amp;gt;" style="html=1;verticalAlign=bottom;labelBackgroundColor=none;endArrow=open;endFill=0;dashed=1;rounded=0;entryX=1;entryY=0.5;entryDx=0;entryDy=0;exitX=0;exitY=0.5;exitDx=0;exitDy=0;" edge="1" parent="1" source="8mp85EiAqP2YCafliV72-14" target="8mp85EiAqP2YCafliV72-13">
          <mxGeometry width="160" relative="1" as="geometry">
            <mxPoint x="697" y="405" as="sourcePoint" />
            <mxPoint x="564" y="405" as="targetPoint" />
          </mxGeometry>
        </mxCell>
        <mxCell id="8mp85EiAqP2YCafliV72-23" value="&amp;lt;&amp;lt;extend&amp;gt;&amp;gt;" style="html=1;verticalAlign=bottom;labelBackgroundColor=none;endArrow=open;endFill=0;dashed=1;rounded=0;entryX=1;entryY=0.5;entryDx=0;entryDy=0;exitX=0;exitY=0.5;exitDx=0;exitDy=0;" edge="1" parent="1" source="8mp85EiAqP2YCafliV72-15" target="8mp85EiAqP2YCafliV72-13">
          <mxGeometry width="160" relative="1" as="geometry">
            <mxPoint x="520" y="495" as="sourcePoint" />
            <mxPoint x="494" y="495" as="targetPoint" />
          </mxGeometry>
        </mxCell>
        <mxCell id="8mp85EiAqP2YCafliV72-24" value="&amp;lt;&amp;lt;include&amp;gt;&amp;gt;" style="html=1;verticalAlign=bottom;labelBackgroundColor=none;endArrow=open;endFill=0;dashed=1;rounded=0;exitX=1;exitY=0.5;exitDx=0;exitDy=0;entryX=0;entryY=0.5;entryDx=0;entryDy=0;" edge="1" parent="1" source="8mp85EiAqP2YCafliV72-6" target="8mp85EiAqP2YCafliV72-10">
          <mxGeometry width="160" relative="1" as="geometry">
            <mxPoint x="630" y="540" as="sourcePoint" />
            <mxPoint x="790" y="540" as="targetPoint" />
          </mxGeometry>
        </mxCell>
        <mxCell id="8mp85EiAqP2YCafliV72-25" value="&amp;lt;&amp;lt;include&amp;gt;&amp;gt;" style="html=1;verticalAlign=bottom;labelBackgroundColor=none;endArrow=open;endFill=0;dashed=1;rounded=0;exitX=1;exitY=0.5;exitDx=0;exitDy=0;entryX=0;entryY=0.5;entryDx=0;entryDy=0;" edge="1" parent="1" source="8mp85EiAqP2YCafliV72-12" target="8mp85EiAqP2YCafliV72-13">
          <mxGeometry width="160" relative="1" as="geometry">
            <mxPoint x="300" y="405" as="sourcePoint" />
            <mxPoint x="424" y="405" as="targetPoint" />
          </mxGeometry>
        </mxCell>
        <mxCell id="8mp85EiAqP2YCafliV72-26" value="&amp;lt;&amp;lt;include&amp;gt;&amp;gt;" style="html=1;verticalAlign=bottom;labelBackgroundColor=none;endArrow=open;endFill=0;dashed=1;rounded=0;exitX=1;exitY=0.5;exitDx=0;exitDy=0;entryX=0;entryY=0.5;entryDx=0;entryDy=0;" edge="1" parent="1" source="8mp85EiAqP2YCafliV72-14" target="8mp85EiAqP2YCafliV72-16">
          <mxGeometry width="160" relative="1" as="geometry">
            <mxPoint x="300" y="495" as="sourcePoint" />
            <mxPoint x="424" y="495" as="targetPoint" />
          </mxGeometry>
        </mxCell>
        <mxCell id="8mp85EiAqP2YCafliV72-27" value="&amp;lt;&amp;lt;include&amp;gt;&amp;gt;" style="html=1;verticalAlign=bottom;labelBackgroundColor=none;endArrow=open;endFill=0;dashed=1;rounded=0;exitX=1;exitY=0.5;exitDx=0;exitDy=0;entryX=0;entryY=0.5;entryDx=0;entryDy=0;" edge="1" parent="1" source="8mp85EiAqP2YCafliV72-7" target="8mp85EiAqP2YCafliV72-8">
          <mxGeometry width="160" relative="1" as="geometry">
            <mxPoint x="310" y="505" as="sourcePoint" />
            <mxPoint x="434" y="505" as="targetPoint" />
          </mxGeometry>
        </mxCell>
        <mxCell id="8mp85EiAqP2YCafliV72-28" value="&amp;lt;&amp;lt;include&amp;gt;&amp;gt;" style="html=1;verticalAlign=bottom;labelBackgroundColor=none;endArrow=open;endFill=0;dashed=1;rounded=0;exitX=1;exitY=0.5;exitDx=0;exitDy=0;entryX=0;entryY=0.5;entryDx=0;entryDy=0;" edge="1" parent="1" source="8mp85EiAqP2YCafliV72-8" target="8mp85EiAqP2YCafliV72-9">
          <mxGeometry width="160" relative="1" as="geometry">
            <mxPoint x="310" y="755" as="sourcePoint" />
            <mxPoint x="350" y="755" as="targetPoint" />
          </mxGeometry>
        </mxCell>
      </root>
    </mxGraphModel>
  </diagram>
</mxfile>
